<svg xmlns="http://www.w3.org/2000/svg" width="360" height="200" fill="none" viewBox="0 0 360 200"><rect width="360" height="200" fill="#001E3C"/><rect width="360" height="200" fill="url(#paint0_linear_1145_33665)"/><rect width="32" height="180" x="318" y="10" fill="url(#paint1_linear_1145_33665)" rx="10"/><rect width="22" height="5" x="323" y="41" fill="#C2E0FF" rx="2.5"/><rect width="22" height="5" x="323" y="50" fill="#C2E0FF" rx="2.5"/><circle cx="334" cy="26" r="11" fill="#C2E0FF"/><circle cx="334" cy="26" r="7" fill="#F0F7FF"/><circle cx="328" cy="124" r="5" fill="#C2E0FF"/><circle cx="340" cy="124" r="5" fill="#C2E0FF"/><circle cx="328" cy="138" r="5" fill="#C2E0FF"/><circle cx="340" cy="138" r="5" fill="#C2E0FF"/><circle cx="328" cy="152" r="5" fill="#C2E0FF"/><circle cx="328" cy="166" r="5" fill="#C2E0FF"/><circle cx="328" cy="180" r="5" fill="#C2E0FF"/><circle cx="340" cy="152" r="5" fill="#C2E0FF"/><circle cx="340" cy="166" r="5" fill="#C2E0FF"/><circle cx="340" cy="180" r="5" fill="#C2E0FF"/><rect width="176" height="152" x="10" y="38" fill="url(#paint2_linear_1145_33665)" rx="10"/><rect width="7" height="7" x="20.5" y="48.5" fill="#F3F6F9" stroke="#EAEEF3" rx="3.5"/><rect width="7" height="7" x="20.5" y="156.5" fill="#F3F6F9" stroke="#EAEEF3" rx="3.5"/><rect width="7" height="7" x="20.5" y="66.5" fill="#F3F6F9" stroke="#EAEEF3" rx="3.5"/><rect width="7" height="7" x="20.5" y="172.5" fill="#F3F6F9" stroke="#EAEEF3" rx="3.5"/><rect width="7" height="7" x="20.5" y="84.5" fill="#F3F6F9" stroke="#EAEEF3" rx="3.5"/><rect width="7" height="7" x="20.5" y="102.5" fill="#F3F6F9" stroke="#EAEEF3" rx="3.5"/><rect width="7" height="7" x="20.5" y="120.5" fill="#F3F6F9" stroke="#EAEEF3" rx="3.5"/><rect width="7" height="7" x="20.5" y="138.5" fill="#F3F6F9" stroke="#EAEEF3" rx="3.5"/><rect width="92" height="7" x="32.5" y="48.5" fill="#F3F6F9" stroke="#EAEEF3" rx="3.5"/><rect width="42" height="7" x="133.5" y="48.5" fill="#F3F6F9" stroke="#EAEEF3" rx="3.5"/><rect width="42" height="7" x="133.5" y="66.5" fill="#F3F6F9" stroke="#EAEEF3" rx="3.5"/><rect width="42" height="7" x="133.5" y="84.5" fill="#F3F6F9" stroke="#EAEEF3" rx="3.5"/><rect width="42" height="7" x="133.5" y="102.5" fill="#F3F6F9" stroke="#EAEEF3" rx="3.5"/><rect width="42" height="7" x="133.5" y="120.5" fill="#F3F6F9" stroke="#EAEEF3" rx="3.5"/><rect width="42" height="7" x="133.5" y="138.5" fill="#F3F6F9" stroke="#EAEEF3" rx="3.5"/><rect width="42" height="7" x="133.5" y="156.5" fill="#F3F6F9" stroke="#EAEEF3" rx="3.5"/><rect width="42" height="7" x="133.5" y="174.5" fill="#F3F6F9" stroke="#EAEEF3" rx="3.5"/><rect width="92" height="7" x="32.5" y="156.5" fill="#F3F6F9" stroke="#EAEEF3" rx="3.5"/><rect width="92" height="7" x="32.5" y="102.5" fill="#F3F6F9" stroke="#EAEEF3" rx="3.5"/><rect width="92" height="7" x="32.5" y="84.5" fill="#F3F6F9" stroke="#EAEEF3" rx="3.5"/><rect width="92" height="7" x="32.5" y="138.5" fill="#F3F6F9" stroke="#EAEEF3" rx="3.5"/><rect width="92" height="7" x="32.5" y="66.5" fill="#F3F6F9" stroke="#EAEEF3" rx="3.5"/><rect width="92" height="7" x="32.5" y="172.5" fill="#F3F6F9" stroke="#EAEEF3" rx="3.5"/><rect width="92" height="7" x="32.5" y="120.5" fill="#F3F6F9" stroke="#EAEEF3" rx="3.5"/><rect width="300" height="20" x="10" y="10" fill="url(#paint3_linear_1145_33665)" rx="10"/><rect width="72" height="5" x="20" y="17" fill="#EAEEF3" rx="2.5"/><rect width="116" height="152" x="194" y="38" fill="url(#paint4_linear_1145_33665)" rx="10"/><rect width="95" height="83" x="204.5" y="48.5" fill="#F3F6F9" stroke="#EAEEF3" rx="9.5"/><rect width="95" height="7" x="204.5" y="142.5" fill="#F3F6F9" stroke="#EAEEF3" rx="3.5"/><rect width="95" height="7" x="204.5" y="154.5" fill="#F3F6F9" stroke="#EAEEF3" rx="3.5"/><rect width="24" height="8" x="276" y="172" fill="#007FFF" rx="4"/><rect width="23" height="7" x="248.5" y="172.5" fill="#C2E0FF" stroke="#007FFF" rx="3.5"/><path stroke="#C2E0FF" stroke-linecap="round" stroke-width="3" d="M214 122L218.537 92.9425M218.537 92.9425L232.716 90.1839M218.537 92.9425L214 58M290 58L282.627 69.954M246.896 87.4253L255.682 104.713M246.896 87.4253L232.716 90.1839M246.896 87.4253L261.075 84.6667M264.469 122L260.075 113.356M255.682 104.713L272.841 100.606M255.682 104.713L260.075 113.356M290 96.5L272.841 100.606M232.716 90.1839L227.218 74.092M221.719 58L227.218 74.092M227.218 74.092L241.45 71.046M241.45 71.046L255.682 68L282.627 69.954M241.45 71.046L236.562 58M261.075 84.6667L275.254 81.908L282.627 69.954M261.075 84.6667L252 58M282.627 69.954L290 81.908M272.841 100.606L274.889 111.303M276.938 122L274.889 111.303M260.075 113.356L274.889 111.303M274.889 111.303L290 113.356"/><circle cx="275" cy="82" r="4" fill="url(#paint5_linear_1145_33665)"/><defs><linearGradient id="paint0_linear_1145_33665" x1="360" x2="190.189" y1="200" y2="-105.66" gradientUnits="userSpaceOnUse"><stop stop-color="#39F"/><stop offset=".994" stop-color="#0072E6"/></linearGradient><linearGradient id="paint1_linear_1145_33665" x1="334" x2="334" y1="10" y2="190" gradientUnits="userSpaceOnUse"><stop stop-color="#fff"/><stop offset="1" stop-color="#F3F6F9"/></linearGradient><linearGradient id="paint2_linear_1145_33665" x1="98" x2="98" y1="38" y2="190" gradientUnits="userSpaceOnUse"><stop stop-color="#fff"/><stop offset="1" stop-color="#F3F6F9"/></linearGradient><linearGradient id="paint3_linear_1145_33665" x1="160" x2="160" y1="10" y2="30" gradientUnits="userSpaceOnUse"><stop stop-color="#fff"/><stop offset="1" stop-color="#F3F6F9"/></linearGradient><linearGradient id="paint4_linear_1145_33665" x1="252" x2="252" y1="38" y2="190" gradientUnits="userSpaceOnUse"><stop stop-color="#fff"/><stop offset="1" stop-color="#F3F6F9"/></linearGradient><linearGradient id="paint5_linear_1145_33665" x1="279" x2="271" y1="86" y2="78" gradientUnits="userSpaceOnUse"><stop stop-color="#0059B3"/><stop offset="1" stop-color="#007FFF"/></linearGradient></defs></svg>