<svg xmlns="http://www.w3.org/2000/svg" width="360" height="200" fill="none" viewBox="0 0 360 200"><rect width="360" height="200" fill="#001E3C"/><rect width="360" height="200" fill="url(#paint0_linear_1145_33209)"/><rect width="340" height="20" x="10" y="10" fill="url(#paint1_linear_1145_33209)" rx="10"/><rect width="72" height="5" x="29" y="17" fill="#C2E0FF" rx="2.5"/><circle cx="20" cy="20" r="5" fill="#C2E0FF"/><rect width="84" height="152" x="10" y="38" fill="url(#paint2_linear_1145_33209)" rx="10"/><line x1="20" x2="84" y1="46.5" y2="46.5" stroke="#F3F6F9" stroke-width="3"/><line x1="20" x2="84" y1="58.5" y2="58.5" stroke="#F3F6F9" stroke-width="3"/><rect width="64" height="11" x="19.5" y="72.5" fill="#F3F6F9" stroke="#EAEEF3" rx="5.5"/><line x1="20" x2="84" y1="94.5" y2="94.5" stroke="#F3F6F9" stroke-width="3"/><line x1="20" x2="84" y1="106.5" y2="106.5" stroke="#F3F6F9" stroke-width="3"/><line x1="20" x2="84" y1="118.5" y2="118.5" stroke="#F3F6F9" stroke-width="3"/><line x1="20" x2="84" y1="130.5" y2="130.5" stroke="#F3F6F9" stroke-width="3"/><line x1="20" x2="84" y1="142.5" y2="142.5" stroke="#F3F6F9" stroke-width="3"/><line x1="20" x2="84" y1="154.5" y2="154.5" stroke="#F3F6F9" stroke-width="3"/><line x1="20" x2="84" y1="166.5" y2="166.5" stroke="#F3F6F9" stroke-width="3"/><line x1="20" x2="84" y1="178.5" y2="178.5" stroke="#F3F6F9" stroke-width="3"/><rect width="208" height="152" x="102" y="38" fill="url(#paint3_linear_1145_33209)" rx="10"/><rect width="187" height="77" x="112.5" y="72.5" fill="#F3F6F9" stroke="#EAEEF3" rx="9.5"/><rect width="127" height="7" x="112.5" y="48.5" fill="#F3F6F9" stroke="#EAEEF3" rx="3.5"/><rect width="127" height="7" x="112.5" y="60.5" fill="#F3F6F9" stroke="#EAEEF3" rx="3.5"/><rect width="59" height="7" x="112.5" y="154.5" fill="#F3F6F9" stroke="#EAEEF3" rx="3.5"/><rect width="59" height="7" x="176.5" y="154.5" fill="#F3F6F9" stroke="#EAEEF3" rx="3.5"/><rect width="59" height="7" x="240.5" y="154.5" fill="#F3F6F9" stroke="#EAEEF3" rx="3.5"/><rect width="7" height="7" x="244.5" y="48.5" fill="#F3F6F9" stroke="#EAEEF3" rx="3.5"/><rect width="7" height="7" x="256.5" y="48.5" fill="#F3F6F9" stroke="#EAEEF3" rx="3.5"/><rect width="7" height="7" x="268.5" y="48.5" fill="#F3F6F9" stroke="#EAEEF3" rx="3.5"/><rect width="7" height="7" x="280.5" y="48.5" fill="#F3F6F9" stroke="#EAEEF3" rx="3.5"/><rect width="7" height="7" x="292.5" y="48.5" fill="#F3F6F9" stroke="#EAEEF3" rx="3.5"/><rect width="7" height="7" x="244.5" y="60.5" fill="#F3F6F9" stroke="#EAEEF3" rx="3.5"/><rect width="7" height="7" x="256.5" y="60.5" fill="#F3F6F9" stroke="#EAEEF3" rx="3.5"/><rect width="7" height="7" x="268.5" y="60.5" fill="#F3F6F9" stroke="#EAEEF3" rx="3.5"/><rect width="7" height="7" x="280.5" y="60.5" fill="#F3F6F9" stroke="#EAEEF3" rx="3.5"/><rect width="7" height="7" x="292.5" y="60.5" fill="#F3F6F9" stroke="#EAEEF3" rx="3.5"/><rect width="24" height="8" x="276" y="172" fill="#007FFF" rx="4"/><rect width="23" height="7" x="248.5" y="172.5" fill="#C2E0FF" stroke="#007FFF" rx="3.5"/><rect width="32" height="32" x="318" y="38" fill="url(#paint4_linear_1145_33209)" rx="10"/><rect width="18" height="18" x="325" y="45" fill="#C2E0FF" rx="9"/><rect width="32" height="32" x="318" y="78" fill="url(#paint5_linear_1145_33209)" rx="10"/><rect width="18" height="18" x="325" y="85" fill="url(#paint6_linear_1145_33209)" rx="9"/><rect width="32" height="32" x="318" y="118" fill="url(#paint7_linear_1145_33209)" rx="10"/><rect width="18" height="18" x="325" y="125" fill="#C2E0FF" rx="9"/><rect width="32" height="32" x="318" y="158" fill="url(#paint8_linear_1145_33209)" rx="10"/><rect width="18" height="18" x="325" y="165" fill="#C2E0FF" rx="9"/><defs><linearGradient id="paint0_linear_1145_33209" x1="-8" x2="320.665" y1="212" y2="204.503" gradientUnits="userSpaceOnUse"><stop stop-color="#66B2FF"/><stop offset="1" stop-color="#007FFF"/></linearGradient><linearGradient id="paint1_linear_1145_33209" x1="180" x2="180" y1="10" y2="30" gradientUnits="userSpaceOnUse"><stop stop-color="#fff"/><stop offset="1" stop-color="#F3F6F9"/></linearGradient><linearGradient id="paint2_linear_1145_33209" x1="52" x2="52" y1="38" y2="190" gradientUnits="userSpaceOnUse"><stop stop-color="#fff"/><stop offset="1" stop-color="#F3F6F9"/></linearGradient><linearGradient id="paint3_linear_1145_33209" x1="206" x2="206" y1="38" y2="190" gradientUnits="userSpaceOnUse"><stop stop-color="#fff"/><stop offset="1" stop-color="#F3F6F9"/></linearGradient><linearGradient id="paint4_linear_1145_33209" x1="334" x2="334" y1="38" y2="70" gradientUnits="userSpaceOnUse"><stop stop-color="#fff"/><stop offset="1" stop-color="#F3F6F9"/></linearGradient><linearGradient id="paint5_linear_1145_33209" x1="334" x2="334" y1="78" y2="110" gradientUnits="userSpaceOnUse"><stop stop-color="#fff"/><stop offset="1" stop-color="#F3F6F9"/></linearGradient><linearGradient id="paint6_linear_1145_33209" x1="343" x2="325" y1="103" y2="85" gradientUnits="userSpaceOnUse"><stop stop-color="#0059B3"/><stop offset="1" stop-color="#007FFF"/></linearGradient><linearGradient id="paint7_linear_1145_33209" x1="334" x2="334" y1="118" y2="150" gradientUnits="userSpaceOnUse"><stop stop-color="#fff"/><stop offset="1" stop-color="#F3F6F9"/></linearGradient><linearGradient id="paint8_linear_1145_33209" x1="334" x2="334" y1="158" y2="190" gradientUnits="userSpaceOnUse"><stop stop-color="#fff"/><stop offset="1" stop-color="#F3F6F9"/></linearGradient></defs></svg>